<?xml version="1.0" encoding="utf-8"?>
<!-- Generator: Adobe Illustrator 21.1.0, SVG Export Plug-In . SVG Version: 6.00 Build 0)  -->
<svg version="1.1" id="レイヤー_2" xmlns="http://www.w3.org/2000/svg" xmlns:xlink="http://www.w3.org/1999/xlink" x="0px"
	 y="0px" viewBox="0 0 123.7 85.9" style="enable-background:new 0 0 123.7 85.9;" xml:space="preserve">
<style type="text/css">
	.st0{fill:#231815;}
	.st1{fill:#004097;}
	.st2{fill:#1A1A7C;}
	.st3{fill:#E95504;}
	.st4{fill:#ADA58D;}
	.st5{fill:#595943;}
	.st6{fill:#7E7861;}
	.st7{fill:#009FCF;}
	.st8{fill:#007594;}
	.st9{fill:#EDB216;}
	.st10{fill:#DD5289;}
	.st11{fill:#C82546;}
	.st12{fill:#8DC21F;}
	.st13{fill:#1EAA39;}
	.st14{fill:#009B43;}
	.st15{fill:#3B1E86;}
	.st16{fill:#5F1985;}
	.st17{fill:#910782;}
</style>
<g>
	<g>
		<path class="st0" d="M112.3,71.5l0.6-4.9c0.1-0.6-0.2-1-0.7-1h-2.7L107,85.9h3.6l1.3-11.2h9.8c0.4,0,0.7-0.2,0.8-0.5l1.1-2.7
			H112.3z"/>
		<path class="st0" d="M89.9,75.9h13.1c0.5,0,0.8-0.3,0.9-0.8l0.3-2.4H90.3L89.9,75.9z"/>
		<path class="st0" d="M77.6,67.3c0.1-0.5-0.3-0.9-0.8-0.9h-6.2l-0.4,2.9h7.1L77.6,67.3z"/>
		<path class="st0" d="M77.1,71.8c0.1-0.6-0.4-1.1-0.9-1.1H70l-0.4,2.9h7.2L77.1,71.8z"/>
		<path class="st0" d="M40,69c0.4,0,0.7-0.3,0.9-0.6l0.6-2l-6.3,0L34,76.2h-4.5l-4.1,3.7l3.9,6h4.2l3.4-3.4l0.4-3.7l1.2,0h2.7
			l0.2-1.7c0.1-0.5-0.3-0.9-0.8-0.9h-3l0.8-7.1H40z M33.4,81.2l-2.1,2l-2-3.1l1.4-1.3l3,0L33.4,81.2z"/>
		<path class="st0" d="M17.6,76.2h-4.5l0.3-2.6h2.1c0.4,0,0.8-0.3,0.9-0.8l0.2-1.9h-2.9l0.2-1.9H16c0.4,0,0.8-0.3,0.9-0.8l0.2-1.9
			h-2.9l0.1-1.1h-3.6l-0.1,1.1H0.9L0.6,69h9.7L10.1,71H0.3L0,73.6h9.7l-0.3,2.6H4.9l-4.1,3.7l3.9,6h4.2l3.4-3.2l0.4-3.9l5.4,0
			l0.2-1.7C18.4,76.6,18.1,76.2,17.6,76.2z M8.9,81.2l-2.1,2l-2-3.1l1.4-1.3l3,0L8.9,81.2z"/>
		<path class="st0" d="M58.2,69.4l1.8,2.8l-0.8,6.3l-4.9,4.5l0,0l-4.1-4.9l0.6-5.6l3-3.3l0.4-3.2h-7.7l-0.2,1.7
			c-0.1,0.6,0.4,1,0.9,1h3.1l-3,3.3l-0.8,6.7l5.6,6.9h4.2l6.2-5.9l0.9-7.6l-2-3.3h2.7c0.4,0,0.7-0.3,0.9-0.6l0.7-2.1l-7.1,0
			L58.2,69.4z"/>
		<polygon class="st0" points="62.7,65.3 65.7,65.3 66.1,62.2 63,62.2 		"/>
		<polygon class="st0" points="62.1,62.2 59,62.2 58.7,65.3 61.7,65.3 		"/>
		<path class="st0" d="M26.3,76L28,69h3c0.4,0,0.8-0.3,0.9-0.8l0.2-1.9h-3.4l0.3-1.1h-3.7l-0.3,1.1h-3.2l-0.1,1L21.6,69h2.8L22.6,76
			H26.3z"/>
		<path class="st0" d="M86.1,65.6h-2.7l-1.4,11.6l-5.3,4.8h-4.4c-0.4,0-0.7,0.3-0.9,0.6l-0.9,2.9h7.8l7-6.6l1.5-12.5
			C87,66,86.6,65.6,86.1,65.6z"/>
	</g>
	<g>
		<rect x="58.4" y="45.1" class="st1" width="26.1" height="7.4"/>
		<rect x="32.3" y="45.1" class="st2" width="26.1" height="7.4"/>
		<rect x="42" y="41.5" class="st3" width="50.7" height="3.7"/>
		<rect x="38.2" y="35.5" class="st4" width="7.1" height="6"/>
		<rect x="72.8" y="35.5" class="st5" width="16.2" height="6"/>
		
			<rect x="45.4" y="35.5" transform="matrix(-1 -1.224647e-16 1.224647e-16 -1 118.1156 76.9342)" class="st6" width="27.4" height="6"/>
		<rect x="51.7" y="13.6" class="st7" width="31.6" height="3.9"/>
		
			<rect x="26.4" y="13.6" transform="matrix(-1 -1.224647e-16 1.224647e-16 -1 78.0743 31.0558)" class="st8" width="25.3" height="3.9"/>
		<rect x="27.9" y="26" class="st9" width="52.5" height="9.4"/>
		<rect x="35.8" y="17.5" class="st10" width="32.3" height="8.6"/>
		<rect x="68.1" y="17.5" class="st11" width="24.6" height="8.6"/>
		<rect x="42" y="6.6" class="st12" width="7.8" height="7"/>
		
			<rect x="49.8" y="6.6" transform="matrix(-1 -1.224647e-16 1.224647e-16 -1 111.9266 20.1269)" class="st13" width="12.3" height="7"/>
		<rect x="62.1" y="6.6" class="st14" width="30.6" height="7"/>
		<rect x="33" class="st15" width="13.6" height="6.6"/>
		<rect x="46.6" transform="matrix(-1 -1.224647e-16 1.224647e-16 -1 99.6164 6.5527)" class="st16" width="6.4" height="6.6"/>
		<rect x="53" class="st17" width="30.7" height="6.6"/>
	</g>
</g>
</svg>
