<svg xmlns="http://www.w3.org/2000/svg" xmlns:xlink="http://www.w3.org/1999/xlink" viewBox="0 0 392.1 60.5"><defs><style>.cls-1{fill:none;}.cls-2{isolation:isolate;}.cls-3{mix-blend-mode:multiply;}.cls-4{clip-path:url(#clip-path);}.cls-5{fill:#004097;}.cls-6{clip-path:url(#clip-path-2);}.cls-7{fill:#003889;}.cls-8{clip-path:url(#clip-path-3);}.cls-9{fill:#910782;}.cls-10{clip-path:url(#clip-path-4);}.cls-11{clip-path:url(#clip-path-5);}.cls-12{clip-path:url(#clip-path-6);}.cls-13{clip-path:url(#clip-path-7);}.cls-14{fill:#8ec32f;}.cls-15{clip-path:url(#clip-path-8);}.cls-16{clip-path:url(#clip-path-9);}.cls-17{clip-path:url(#clip-path-10);}.cls-18{clip-path:url(#clip-path-11);}.cls-19{fill:#e95504;}.cls-20{clip-path:url(#clip-path-12);}.cls-21{fill:#ada58d;}.cls-22{clip-path:url(#clip-path-13);}.cls-23{clip-path:url(#clip-path-15);}.cls-24{fill:#dd5289;}.cls-25{fill:#c82546;}.cls-26{clip-path:url(#clip-path-16);}.cls-27{fill:#009fcf;}.cls-28{clip-path:url(#clip-path-17);}.cls-29{fill:#007fb5;}.cls-30{clip-path:url(#clip-path-18);}.cls-31{fill:#edb216;}.cls-32{clip-path:url(#clip-path-19);}.cls-33{fill:#231815;}.cls-34{clip-path:url(#clip-path-20);}.cls-35{clip-path:url(#clip-path-21);}.cls-36{clip-path:url(#clip-path-22);}.cls-37{clip-path:url(#clip-path-23);}.cls-38{clip-path:url(#clip-path-24);}.cls-39{clip-path:url(#clip-path-25);}.cls-40{clip-path:url(#clip-path-26);}.cls-41{clip-path:url(#clip-path-27);}.cls-42{clip-path:url(#clip-path-28);}.cls-43{clip-path:url(#clip-path-29);}</style><clipPath id="clip-path"><rect class="cls-1" x="6.81" y="51.95" width="60.05" height="8.55"/></clipPath><clipPath id="clip-path-2"><rect class="cls-1" x="6.81" y="51.95" width="30.03" height="8.55"/></clipPath><clipPath id="clip-path-3"><rect class="cls-1" x="7.65" width="58.35" height="7.54"/></clipPath><clipPath id="clip-path-4"><rect class="cls-1" x="7.65" width="15.6" height="7.54"/></clipPath><clipPath id="clip-path-5"><rect class="cls-1" x="7.65" width="13.24" height="7.54"/></clipPath><clipPath id="clip-path-6"><rect class="cls-1" x="20.82" width="9.84" height="7.54"/></clipPath><clipPath id="clip-path-7"><rect class="cls-1" x="18.01" y="7.54" width="58.35" height="8.08"/></clipPath><clipPath id="clip-path-8"><rect class="cls-1" x="41.12" y="7.54" width="35.24" height="8.08"/></clipPath><clipPath id="clip-path-9"><rect class="cls-1" x="52.37" y="7.54" width="23.99" height="8.08"/></clipPath><clipPath id="clip-path-10"><rect class="cls-1" x="26.97" y="7.54" width="27.24" height="8.08"/></clipPath><clipPath id="clip-path-11"><rect class="cls-1" x="18.01" y="47.7" width="58.35" height="4.25"/></clipPath><clipPath id="clip-path-12"><rect class="cls-1" x="13.63" y="40.82" width="58.35" height="6.88"/></clipPath><clipPath id="clip-path-13"><rect class="cls-1" x="53.38" y="40.82" width="18.6" height="6.88"/></clipPath><clipPath id="clip-path-15"><rect class="cls-1" x="21.84" y="40.82" width="31.54" height="6.88"/></clipPath><clipPath id="clip-path-16"><rect class="cls-1" y="15.63" width="65.55" height="4.5"/></clipPath><clipPath id="clip-path-17"><rect class="cls-1" y="15.63" width="29.12" height="4.5"/></clipPath><clipPath id="clip-path-18"><rect class="cls-1" x="1.77" y="29.95" width="60.4" height="10.87"/></clipPath><clipPath id="clip-path-19"><rect class="cls-1" x="353.3" y="8.8" width="38.8" height="47.17"/></clipPath><clipPath id="clip-path-20"><rect class="cls-1" x="313.56" y="25.39" width="33.22" height="7.41"/></clipPath><clipPath id="clip-path-21"><rect class="cls-1" x="267.76" y="10.62" width="17.16" height="6.77"/></clipPath><clipPath id="clip-path-22"><rect class="cls-1" x="266.51" y="20.72" width="17.18" height="6.77"/></clipPath><clipPath id="clip-path-23"><rect class="cls-1" x="163.39" y="10.62" width="37.44" height="45.33"/></clipPath><clipPath id="clip-path-24"><rect class="cls-1" x="104.5" y="8.05" width="42.76" height="47.9"/></clipPath><clipPath id="clip-path-25"><rect class="cls-1" x="212.18" y="9.97" width="45.15" height="45.59"/></clipPath><clipPath id="clip-path-26"><rect class="cls-1" x="250.2" y="0.97" width="7.98" height="7.02"/></clipPath><clipPath id="clip-path-27"><rect class="cls-1" x="240.9" y="0.97" width="7.98" height="7.02"/></clipPath><clipPath id="clip-path-28"><rect class="cls-1" x="154.67" y="8.05" width="24.61" height="24.82"/></clipPath><clipPath id="clip-path-29"><rect class="cls-1" x="268.78" y="8.7" width="37.86" height="46.57"/></clipPath></defs><title>アートボード 1</title><g class="cls-2"><g id="レイヤー_1" data-name="レイヤー 1"><g class="cls-3"><g class="cls-4"><rect class="cls-5" x="6.81" y="51.95" width="60.05" height="8.55"/></g></g><g class="cls-3"><g class="cls-6"><rect class="cls-7" x="6.81" y="51.95" width="30.03" height="8.55"/></g></g><g class="cls-3"><g class="cls-8"><rect class="cls-9" x="7.65" width="58.35" height="7.54"/></g></g><g class="cls-3"><g class="cls-10"><rect class="cls-9" x="7.65" width="15.6" height="7.54"/></g></g><g class="cls-3"><g class="cls-11"><rect class="cls-9" x="7.65" width="13.24" height="7.54"/></g></g><g class="cls-3"><g class="cls-12"><rect class="cls-9" x="20.82" width="9.84" height="7.54"/></g></g><g class="cls-3"><g class="cls-13"><rect class="cls-14" x="18.01" y="7.54" width="58.35" height="8.08"/></g></g><g class="cls-3"><g class="cls-15"><rect class="cls-14" x="41.12" y="7.54" width="35.24" height="8.08"/></g></g><g class="cls-3"><g class="cls-16"><rect class="cls-14" x="52.37" y="7.54" width="23.99" height="8.08"/></g></g><g class="cls-3"><g class="cls-17"><rect class="cls-14" x="26.97" y="7.54" width="27.24" height="8.08"/></g></g><g class="cls-3"><g class="cls-18"><rect class="cls-19" x="18.01" y="47.7" width="58.35" height="4.25"/></g></g><g class="cls-3"><g class="cls-20"><rect class="cls-21" x="13.63" y="40.82" width="58.35" height="6.88"/></g></g><g class="cls-3"><g class="cls-22"><rect class="cls-21" x="53.38" y="40.82" width="18.6" height="6.88"/></g></g><g class="cls-3"><g class="cls-22"><rect class="cls-21" x="53.38" y="40.82" width="18.6" height="6.88"/></g></g><g class="cls-3"><g class="cls-23"><rect class="cls-21" x="21.84" y="40.82" width="31.54" height="6.88"/></g></g><rect class="cls-24" x="10.81" y="20.13" width="65.55" height="9.85"/><rect class="cls-25" x="47.99" y="20.13" width="28.37" height="9.85"/><g class="cls-3"><g class="cls-26"><rect class="cls-27" y="15.63" width="65.55" height="4.5"/></g></g><g class="cls-3"><g class="cls-28"><rect class="cls-29" y="15.63" width="29.12" height="4.5"/></g></g><g class="cls-3"><g class="cls-30"><rect class="cls-31" x="1.77" y="29.95" width="60.4" height="10.87"/></g></g><g class="cls-3"><g class="cls-32"><path class="cls-33" d="M365.57,22.4,366.91,11c.15-1.28-.44-2.21-1.74-2.21h-6.33L353.3,56h8.33l3-26h22.86a2.08,2.08,0,0,0,1.92-1.28l2.64-6.32Z"/></g></g><g class="cls-3"><g class="cls-34"><path class="cls-33" d="M313.56,32.8h30.52a2.08,2.08,0,0,0,2.07-1.85l.63-5.56H314.4Z"/></g></g><g class="cls-3"><g class="cls-35"><path class="cls-33" d="M284.91,12.73A1.91,1.91,0,0,0,283,10.62H268.61l-.84,6.77h16.58Z"/></g></g><g class="cls-3"><g class="cls-36"><path class="cls-33" d="M283.67,23.16a2.21,2.21,0,0,0-2.18-2.44H267.35l-.84,6.77h16.64Z"/></g></g><g class="cls-3"><g class="cls-37"><path class="cls-33" d="M197.44,16.79a2.08,2.08,0,0,0,2-1.49l1.39-4.66-14.69,0-2.7,22.73H173l-9.59,8.56,9,14h9.76l8-7.91,1-8.55h9.19l.48-4a1.9,1.9,0,0,0-1.88-2.12h-7l2-16.55ZM182.07,45l-4.8,4.73-4.66-7.22,3.16-3.05h7Z"/></g></g><g class="cls-3"><g class="cls-38"><path class="cls-33" d="M145.36,33.34h-10.5l.7-5.93h5a2,2,0,0,0,2-1.79l.52-4.38H136.3l.53-4.46h4.94a2,2,0,0,0,2-1.79l.52-4.38h-6.75l.3-2.57h-8.41l-.3,2.57H106.57l-.76,6.17h22.61l-.53,4.46H105.26l-.76,6.17h22.66l-.7,5.94H116l-9.59,8.56,9,14h9.76l7.94-7.51,1-9h12.65l.48-4a1.91,1.91,0,0,0-1.89-2.11M125.07,45l-4.8,4.73-4.66-7.22,3.16-3.05h7Z"/></g></g><g class="cls-3"><g class="cls-39"><path class="cls-33" d="M239.78,17.61l4.13,6.58-1.75,14.74L230.78,49.37v0L221.23,38l1.5-12.94,7-7.66.88-7.44H212.66l-.46,4a2.21,2.21,0,0,0,2.18,2.44h7.28l-7,7.63-1.81,15.48,13.08,16h9.76L250.2,41.8l2-17.77-4.76-7.6h6.32a2.08,2.08,0,0,0,2-1.49l1.53-5-16.6,0Z"/></g></g><g class="cls-3"><g class="cls-40"><polygon class="cls-33" points="250.2 7.99 257.34 7.99 258.19 0.97 251.05 0.97 250.2 7.99"/></g></g><g class="cls-3"><g class="cls-41"><polygon class="cls-33" points="248.88 0.97 241.75 0.97 240.9 7.99 248.03 7.99 248.88 0.97"/></g></g><g class="cls-3"><g class="cls-42"><path class="cls-33" d="M165.56,32.87l4.14-16.08h7a2,2,0,0,0,2-1.79l.52-4.38h-8l.66-2.57h-8.49l-.66,2.57h-7.4l-.27,2.3-.46,3.87h6.55l-4.14,16.08Z"/></g></g><g class="cls-3"><g class="cls-43"><path class="cls-33" d="M304.75,8.7h-6.2l-3.16,27.08L283,47H272.81a2.08,2.08,0,0,0-2,1.48l-2,6.75h18.07l16.38-15.4,3.4-29.05a1.91,1.91,0,0,0-1.89-2.11"/></g></g></g></g></svg>